<svg width="18" height="18" viewBox="0 0 18 18" fill="none" xmlns="http://www.w3.org/2000/svg">
<path d="M3.75 8.25H3V9.75H3.75V8.25ZM13.5 9.75H14.25V8.25H13.5V9.75ZM3.75 9.75H13.5V8.25H3.75V9.75Z" fill="#92AE59"/>
<path d="M9.53033 3.21967L9 2.68934L7.93934 3.75L8.46967 4.28033L9.53033 3.21967ZM14.25 9L14.7803 9.53033C15.0732 9.23744 15.0732 8.76256 14.7803 8.46967L14.25 9ZM8.46967 13.7197L7.93934 14.25L9 15.3107L9.53033 14.7803L8.46967 13.7197ZM8.46967 4.28033L13.7197 9.53033L14.7803 8.46967L9.53033 3.21967L8.46967 4.28033ZM13.7197 8.46967L8.46967 13.7197L9.53033 14.7803L14.7803 9.53033L13.7197 8.46967Z" fill="#92AE59"/>
</svg>
