<svg width="18" height="18" viewBox="0 0 18 18" fill="none" xmlns="http://www.w3.org/2000/svg">
<path d="M14.25 8.25H15V9.75H14.25V8.25ZM4.5 9.75H3.75V8.25H4.5V9.75ZM14.25 9.75H4.5V8.25H14.25V9.75Z" fill="#92AE59"/>
<path d="M8.46967 3.21967L9 2.68934L10.0607 3.75L9.53033 4.28033L8.46967 3.21967ZM3.75 9L3.21967 9.53033C2.92678 9.23744 2.92678 8.76256 3.21967 8.46967L3.75 9ZM9.53033 13.7197L10.0607 14.25L9 15.3107L8.46967 14.7803L9.53033 13.7197ZM9.53033 4.28033L4.28033 9.53033L3.21967 8.46967L8.46967 3.21967L9.53033 4.28033ZM4.28033 8.46967L9.53033 13.7197L8.46967 14.7803L3.21967 9.53033L4.28033 8.46967Z" fill="#92AE59"/>
</svg>
