<svg width="24" height="24" viewBox="0 0 24 24" fill="none" xmlns="http://www.w3.org/2000/svg">
<path d="M5 11.25H4.25V12.75H5V11.25ZM18 12.75H18.75V11.25H18V12.75ZM5 12.75H18V11.25H5V12.75Z" fill="white"/>
<path d="M12.5303 4.46967L12 3.93934L10.9393 5L11.4697 5.53033L12.5303 4.46967ZM19 12L19.5303 12.5303C19.8232 12.2374 19.8232 11.7626 19.5303 11.4697L19 12ZM11.4697 18.4697L10.9393 19L12 20.0607L12.5303 19.5303L11.4697 18.4697ZM11.4697 5.53033L18.4697 12.5303L19.5303 11.4697L12.5303 4.46967L11.4697 5.53033ZM18.4697 11.4697L11.4697 18.4697L12.5303 19.5303L19.5303 12.5303L18.4697 11.4697Z" fill="white"/>
</svg>
