<svg width="16" height="16" viewBox="0 0 16 16" fill="none" xmlns="http://www.w3.org/2000/svg">
<path d="M11.8301 5.23043L12.3605 4.7001L11.2998 3.63944L10.7695 4.16977L11.8301 5.23043ZM4.16981 10.7694L3.63948 11.2998L4.70014 12.3604L5.23047 11.8301L4.16981 10.7694ZM10.7695 4.16977L4.16981 10.7694L5.23047 11.8301L11.8301 5.23043L10.7695 4.16977Z" fill="#2A2B28"/>
<path d="M5.23053 4.1698L4.7002 3.63947L3.63954 4.70013L4.16987 5.23046L5.23053 4.1698ZM10.7695 11.8301L11.2999 12.3605L12.3605 11.2998L11.8302 10.7695L10.7695 11.8301ZM4.16987 5.23046L10.7695 11.8301L11.8302 10.7695L5.23053 4.1698L4.16987 5.23046Z" fill="#2A2B28"/>
</svg>
